<svg xmlns="http://www.w3.org/2000/svg" xmlns:xlink="http://www.w3.org/1999/xlink" viewBox="0 0 177.26 170.36"><defs><style>.cls-1{fill:url(#Градієнт_без_назви_14);}.cls-2{fill:url(#Градієнт_без_назви_14-2);}.cls-3{fill:url(#Градієнт_без_назви_14-3);}.cls-4{fill:url(#Градієнт_без_назви_14-4);}.cls-5{fill:#fff;}</style><linearGradient id="Градієнт_без_назви_14" x1="49.95" y1="0.99" x2="49.95" y2="95.99" gradientUnits="userSpaceOnUse"><stop offset="0" stop-color="#72afd3"/><stop offset="1" stop-color="#37ecba"/></linearGradient><linearGradient id="Градієнт_без_назви_14-2" x1="40.41" y1="0.99" x2="40.41" y2="95.99" xlink:href="#Градієнт_без_назви_14"/><linearGradient id="Градієнт_без_назви_14-3" x1="63.6" y1="0.99" x2="63.6" y2="95.99" xlink:href="#Градієнт_без_назви_14"/><linearGradient id="Градієнт_без_назви_14-4" x1="46.62" y1="0.99" x2="46.62" y2="95.99" xlink:href="#Градієнт_без_назви_14"/></defs><title>logo-white-mini</title><g id="Шар_2" data-name="Шар 2"><g id="Livello_1" data-name="Livello 1"><path class="cls-1" d="M49.06,94.65c10.69,0,19.58-7.09,21.47-13A41.65,41.65,0,0,0,72.17,76c.41-1.91.52-4.16.89-6.22.19-1.05.76-3.89.89-5,.16-1.25-5.7-4.76-13-5s-15.88,5.76-23,6c-6.89.23-12-2.41-12-2.19v9.56c0,.1,0,.2,0,.29A23.66,23.66,0,0,0,49.06,94.65Z"/><circle class="cls-2" cx="40.41" cy="39.46" r="9.54"/><circle class="cls-3" cx="63.6" cy="24.43" r="8.35"/><circle class="cls-4" cx="46.62" cy="6.33" r="6.33"/><path class="cls-5" d="M127.74,22.58c-8.13,0-22.11,4.37-29.79,10.22a64.09,64.09,0,0,0-13,15c-3.58,6.08-4.25,12.55-4.66,15.68l-1.7,12.73C75.91,90.28,63.24,101.3,48.53,101.3c-16.57,0-29.2-14-29.2-30.58,0-1.09.17-38.8.17-38.8l-.17.13c0-5.72-5.52-9.86-9.47-9.86A9.53,9.53,0,0,0,0,32.05V71.28C0,98.51,22.05,121,49.28,120.63a49.19,49.19,0,0,0,28.94-9.73v49.79a9.77,9.77,0,1,0,19.53-.25V111.56l.53-33.71c-.06-.3-.06-11.09,0-11.17a30,30,0,1,1,35,34.9s-5.3.16-5.25.21c-5.72,0-10,6-10,9.93a9.53,9.53,0,0,0,9.86,9.86l5.43-.28a49.52,49.52,0,0,0-5.46-98.73Z"/></g></g></svg>